/* XPM */
static char *result[] = {
/* columns rows colors chars-per-pixel */
"32 32 240 2 ",
"   c #61533C",
".  c #69573E",
"X  c #69583E",
"o  c #63603C",
"O  c #6B653E",
"+  c #6C663F",
"@  c #6C7B3E",
"#  c #6C7F3D",
"$  c #6C7C3E",
"%  c #6E7D3E",
"&  c #6E7D3F",
"*  c #6E7E3F",
"=  c #6F7E3F",
"-  c #6A4840",
";  c #6A4941",
":  c #6D4A41",
">  c #6C4B42",
",  c #6E4C42",
"<  c #6E4D43",
"1  c #6F4D43",
"2  c #6C4E43",
"3  c #6A4A44",
"4  c #6A4B44",
"5  c #714E43",
"6  c #734F43",
"7  c #714F44",
"8  c #6A5441",
"9  c #695940",
"0  c #6A5940",
"q  c #6B5940",
"w  c #745142",
"e  c #735045",
"r  c #725046",
"t  c #755145",
"y  c #755246",
"u  c #765246",
"i  c #785346",
"p  c #7C5547",
"a  c #725B46",
"s  c #725C46",
"d  c #735E47",
"f  c #755D45",
"g  c #765C45",
"h  c #765E45",
"j  c #735349",
"k  c #755449",
"l  c #7B5648",
"z  c #7A564A",
"x  c #7C5648",
"c  c #7C5748",
"v  c #7D5849",
"b  c #7D5C50",
"n  c #7F5E51",
"m  c #7E5F53",
"M  c #7F5F54",
"N  c #6B6640",
"B  c #6C6640",
"V  c #74614B",
"C  c #76654A",
"Z  c #76664B",
"A  c #7B654E",
"S  c #77684C",
"D  c #6F7241",
"F  c #707341",
"G  c #717341",
"H  c #717441",
"J  c #717443",
"K  c #757047",
"L  c #757048",
"P  c #7A7F4B",
"I  c #7E6253",
"U  c #7F6354",
"Y  c #825A4A",
"T  c #825B4A",
"R  c #825B4B",
"E  c #825C4B",
"W  c #835C4C",
"Q  c #855D4C",
"!  c #865C4C",
"~  c #865D4C",
"^  c #845E4D",
"/  c #8B5E4E",
"(  c #8A614E",
")  c #8B614E",
"_  c #8E634E",
"`  c #8E634F",
"'  c #8C654E",
"]  c #8D654E",
"[  c #8E644F",
"{  c #826352",
"}  c #856253",
"|  c #836557",
" . c #866456",
".. c #8B6150",
"X. c #8B6350",
"o. c #8C6450",
"O. c #8F6856",
"+. c #846658",
"@. c #87685A",
"#. c #8D6A5B",
"$. c #896A5C",
"%. c #916051",
"&. c #936353",
"*. c #956253",
"=. c #986354",
"-. c #986454",
";. c #996754",
":. c #9A6754",
">. c #956952",
",. c #966A52",
"<. c #976A52",
"1. c #966A53",
"2. c #986A51",
"3. c #996B51",
"4. c #986B53",
"5. c #9A6D54",
"6. c #9B6C55",
"7. c #9C6E54",
"8. c #9C6E55",
"9. c #946F5B",
"0. c #8A755B",
"q. c #8A765B",
"w. c #9E7157",
"e. c #92705F",
"r. c #9B7259",
"t. c #A07056",
"y. c #A17257",
"u. c #A27257",
"i. c #A67457",
"p. c #A57158",
"a. c #A2755A",
"s. c #A1775C",
"d. c #A97759",
"f. c #AC7759",
"g. c #AE7D5E",
"h. c #B4745E",
"j. c #B27A5D",
"k. c #B37A5D",
"l. c #866F60",
"z. c #917363",
"x. c #977664",
"c. c #9A7765",
"v. c #997966",
"b. c #9F7D68",
"n. c #A27C63",
"m. c #A47D64",
"M. c #B37E63",
"N. c #B97D60",
"B. c #BD7F62",
"V. c #C27E63",
"C. c #C37A65",
"Z. c #C57B66",
"A. c #6C803D",
"S. c #6F823E",
"D. c #6F823F",
"F. c #6F833F",
"G. c #6F8A3E",
"H. c #70833F",
"J. c #708C3F",
"K. c #718C3F",
"L. c #718F3F",
"P. c #728142",
"I. c #728243",
"U. c #738343",
"Y. c #728541",
"T. c #728641",
"R. c #728542",
"E. c #718C40",
"W. c #808F4D",
"Q. c #80904D",
"!. c #9E816B",
"~. c #AA8065",
"^. c #AE8265",
"/. c #A3836E",
"(. c #A5836E",
"). c #A5846F",
"_. c #A08F6B",
"`. c #B28465",
"'. c #B38667",
"]. c #A1906C",
"[. c #A68570",
"{. c #A68670",
"}. c #A88671",
"|. c #A98773",
" X c #AA8A73",
".X c #AB8A74",
"XX c #AC8B75",
"oX c #AC8B76",
"OX c #AA8E78",
"+X c #AE967C",
"@X c #B1937B",
"#X c #BD9678",
"$X c #B8977E",
"%X c #B9987D",
"&X c #C28466",
"*X c #CD836B",
"=X c #C58A6B",
"-X c #D2816B",
";X c #D2846A",
":X c #DA856F",
">X c #DB856F",
",X c #D2987D",
"<X c #D2997E",
"1X c #E08B71",
"2X c #E99075",
"3X c #EB9277",
"4X c #B69A81",
"5X c #B79F85",
"6X c #BD9E82",
"7X c #B89F85",
"8X c #BC9F85",
"9X c #BAA389",
"0X c #BCA288",
"qX c #BCA389",
"wX c #BFA68B",
"eX c #C29F80",
"rX c #C0A68B",
"tX c #C4A88A",
"yX c #C5A98B",
"uX c #C4AA8E",
"iX c #C5AA8E",
"pX c #C5AB8F",
"aX c #CAB093",
"sX c #CAB193",
"dX c #CCB091",
"fX c #CEB293",
"gX c #CAB496",
"hX c #D3B092",
"jX c #D4B193",
"kX c #D2B99A",
"lX c #D4B89A",
"zX c #D5B99A",
"xX c #D3BB9C",
"cX c #D4BD9E",
"vX c #D4BE9E",
"bX c #D5BE9E",
"nX c #D5BE9F",
"mX c #D6BE9F",
"MX c #D6BF9F",
"NX c #D7BF9F",
/* pixels */
"L.L.L.L.L.L.L.L.L.L.L.L.L.L.L.L.L.L.L.L.L.L.L.L.L.L.L.L.L.L.L.L.",
"L.L.L.L.L.L.L.L.L.L.L.L.E.Y.P.P.P.P.Y.E.L.L.L.L.L.L.L.L.L.L.L.L.",
"L.L.L.L.L.L.L.L.L.L.L.L.R.K C C C C K R.L.L.L.L.L.L.L.L.L.L.L.L.",
"L.L.L.L.L.L.L.L.L.L.E.T.P q.z.z.z.z.q.P T.E.L.L.L.L.L.L.L.L.L.L.",
"L.L.L.L.L.L.L.L.L.L.Y.L 0.+XrXwXwXrX+X0.L Y.L.L.L.L.L.L.L.L.L.L.",
"L.L.L.L.L.L.L.L.J.F.D d @.OXqX0X0XqXOX@.d D F.J.L.L.L.L.L.L.L.L.",
"L.L.L.L.L.L.L.L.D.N 8 2 j m +.| | +.m j 2 8 N D.L.L.L.L.L.L.L.L.",
"L.L.L.L.L.L.J.F.H h t , ; - : 6 6 : - ; , t h H F.J.L.L.L.L.L.L.",
"L.L.L.L.L.L.D.B g ] [ x 7 5 p _ _ p 5 7 x [ ] g B D.L.L.L.L.L.L.",
"L.L.L.L.L.L.* 9 t [ 6.;.&...o.1.1.o...&.;.6.[ t 9 * L.L.L.L.L.L.",
"L.L.L.L.L.L.* 9 , l :.Z.*XM.r.X.X.r.M.*XZ.:.l , 9 * L.L.L.L.L.L.",
"L.L.L.L.J.H.G f u y -.>X3X=Xs.^ ^ s.=X3X>X-.y u f G H.J.L.L.L.L.",
"L.L.L.L.D.B g ' [ v =.:X2X&Xw.W W w.&X2X:X=.v [ ' g B D.L.L.L.L.",
"L.L.L.L.* 0 i <.5.E *.-X1XB.7.T T 7.B.1X-X*.E 5.<.i 0 * L.L.L.L.",
"L.L.L.L.* 0 i ,.5.E %.C.;XN.8.Y Y 8.N.;XC.%.E 5.,.i 0 * L.L.L.L.",
"L.L.L.L.* 0 i ,.5.R / h.V.k.a.9.9.a.k.V.h./ R 5.,.i 0 * L.L.L.L.",
"L.L.L.L.* 0 i <.5.R ! p.j.f.^.%X%X^.f.j.p.! R 5.<.i 0 * L.L.L.L.",
"L.L.L.L.= 0 t ` >.( ` y.g.`.#XfXfX#X`.g.y.` ( >.` t 0 = L.L.L.L.",
"L.L.L.L.= q 1 c ) 4.u.d.'.eXdXkXkXdXeX'.d.u.4.) c 1 q = L.L.L.L.",
"L.L.L.L.= q > e Q t.i.2.n.tXnXcXcXnXtXn.2.i.t.Q e > q = L.L.L.L.",
"L.L.L.L.= q > e ~ t.3.w I 5XmXcXcXmX5XI w 3.t.~ e > q = L.L.L.L.",
"L.L.L.L.= q < z O.~.m.U l.9XzXjXjXzX9Xl.U m.~.O.z < q = L.L.L.L.",
"L.L.L.L.= 0 r } b.6XyX7X9XgXhX,X,XhXgX9X7XyX6Xb.} r 0 = L.L.L.L.",
"L.L.L.L.D.+ a { v.4XaXxXMXvXhX<X<XhXvXMXxXaX4Xv.{ a + D.L.L.L.L.",
"L.L.L.L.K.H.F s n x.@XsXNXbXlXjXjXlXbXNXsX@Xx.n s F H.K.L.L.L.L.",
"L.L.L.L.L.L.& X k e..X8XuXiXiXpXpXiXiXuX8X.Xe.k X & L.L.L.L.L.L.",
"L.L.L.L.L.L.% . b }.$X X/.).[.{.{.[.)./. X$X}.b . % L.L.L.L.L.L.",
"L.L.L.L.L.L.S.O A !.oX(.c.#. . . . .#.c.(.oX!.A O S.L.L.L.L.L.L.",
"L.L.L.L.L.L.J.F.J V $.XX|.M 3 4 4 3 M |.XX$.V J F.J.L.L.L.L.L.L.",
"L.L.L.L.L.L.L.L.# o Z _.].S         S ]._.Z o # L.L.L.L.L.L.L.L.",
"L.L.L.L.L.L.L.L.G.A.I.W.Q.U.@ $ $ @ U.Q.W.I.A.G.L.L.L.L.L.L.L.L.",
"L.L.L.L.L.L.L.L.L.L.L.L.L.L.L.L.L.L.L.L.L.L.L.L.L.L.L.L.L.L.L.L."
};
