/* XPM */
static char *result[] = {
/* columns rows colors chars-per-pixel */
"32 32 203 2 ",
"   c #60503A",
".  c #60513B",
"X  c #61523C",
"o  c #63533D",
"O  c #67563D",
"+  c #65553E",
"@  c #635F3C",
"#  c #69583F",
"$  c #69593F",
"%  c #65613D",
"&  c #6B7A3D",
"*  c #6B7B3D",
"=  c #6B7B3E",
"-  c #6C7B3E",
";  c #6C7F3D",
":  c #6D7C3E",
">  c #6D7D3F",
",  c #6E7D3F",
"<  c #6E7E3F",
"1  c #6F7E3F",
"2  c #674740",
"3  c #6E4C43",
"4  c #734F45",
"5  c #6C5641",
"6  c #695940",
"7  c #6A5940",
"8  c #6B5941",
"9  c #6C5941",
"0  c #6C5A41",
"q  c #735045",
"w  c #745045",
"e  c #765146",
"r  c #775346",
"t  c #785347",
"y  c #795447",
"u  c #715943",
"i  c #775F45",
"p  c #775E46",
"a  c #785E46",
"s  c #785F46",
"d  c #76574E",
"f  c #7A5548",
"g  c #7B5548",
"h  c #7B5648",
"j  c #7B574A",
"k  c #735E4A",
"l  c #735F4A",
"z  c #77584F",
"x  c #7E5B49",
"c  c #785950",
"v  c #785A50",
"b  c #7A5B51",
"n  c #7E5D50",
"m  c #7E5E52",
"M  c #6C6740",
"N  c #6E6741",
"B  c #6E6841",
"V  c #786046",
"C  c #74604B",
"Z  c #76654B",
"A  c #76664B",
"S  c #6D7141",
"D  c #6E7140",
"F  c #6E7242",
"G  c #727442",
"H  c #737442",
"J  c #727642",
"K  c #81594A",
"L  c #825A4B",
"P  c #835B4B",
"I  c #845C4C",
"U  c #8B614E",
"Y  c #8B614F",
"T  c #8D624F",
"R  c #8E664E",
"E  c #856253",
"W  c #8F6451",
"Q  c #8F6950",
"!  c #8B6C5E",
"~  c #8C6C5F",
"^  c #8C6D5F",
"/  c #916551",
"(  c #906850",
")  c #956952",
"_  c #966952",
"`  c #966953",
"'  c #976A53",
"]  c #966954",
"[  c #976A54",
"{  c #986B53",
"}  c #996B53",
"|  c #996C54",
" . c #996C55",
".. c #9A6C54",
"X. c #9B6D54",
"o. c #9A6D56",
"O. c #9A6E57",
"+. c #9C6E55",
"@. c #9D6F55",
"#. c #9E6F56",
"$. c #9F6F56",
"%. c #916C58",
"&. c #936F5C",
"*. c #9F7056",
"=. c #92715F",
"-. c #A07156",
";. c #A17257",
":. c #A27257",
">. c #A47458",
",. c #A57458",
"<. c #A57558",
"1. c #A6765A",
"2. c #A0755D",
"3. c #A87659",
"4. c #A87759",
"5. c #A8775A",
"6. c #A3795F",
"7. c #A37A5F",
"8. c #AB785A",
"9. c #AD7A5B",
"0. c #A97B5F",
"q. c #AC7A5C",
"w. c #AC7B5C",
"e. c #AC7B5D",
"r. c #AD7B5D",
"t. c #AD7C5D",
"y. c #8E7162",
"u. c #937361",
"i. c #9E7860",
"p. c #987867",
"a. c #9A7D68",
"s. c #9A7D69",
"d. c #9B7D6B",
"f. c #A77C60",
"g. c #A77D61",
"h. c #AA7E61",
"j. c #A87E62",
"k. c #AE7F60",
"l. c #6C803D",
"z. c #6D803E",
"x. c #6C813E",
"c. c #6E823E",
"v. c #6F823F",
"b. c #6F8A3E",
"n. c #70823F",
"m. c #70833F",
"M. c #70843F",
"N. c #708B3E",
"B. c #708B3F",
"V. c #718B3F",
"C. c #718C3F",
"Z. c #718F3F",
"A. c #708240",
"S. c #728142",
"D. c #728243",
"F. c #808F4D",
"G. c #AF8061",
"H. c #AE8064",
"J. c #AF8465",
"K. c #A08E6B",
"L. c #A08F6B",
"P. c #B08163",
"I. c #B18363",
"U. c #B28264",
"Y. c #B18464",
"T. c #B28464",
"R. c #B38666",
"E. c #B38766",
"W. c #AB8770",
"Q. c #AC8C77",
"!. c #AE8D78",
"~. c #AE8E78",
"^. c #AF8F79",
"/. c #B18C73",
"(. c #B88D70",
"). c #AF937C",
"_. c #BD9477",
"`. c #B3937C",
"'. c #B4947D",
"]. c #B5947D",
"[. c #B5957E",
"{. c #B7977F",
"}. c #B89780",
"|. c #B99880",
" X c #BEA48A",
".X c #BEA58A",
"XX c #C1A086",
"oX c #C2A187",
"OX c #C4A084",
"+X c #C0A48A",
"@X c #C5A68B",
"#X c #C8A68B",
"$X c #C8A78B",
"%X c #C8A78C",
"&X c #C9A88C",
"*X c #C9A98D",
"=X c #CAA98D",
"-X c #CAAA8E",
";X c #CBAA8E",
":X c #CBAC90",
">X c #CBAD90",
",X c #D3B99A",
"<X c #D3B99B",
/* pixels */
"Z.Z.Z.Z.Z.Z.Z.Z.Z.Z.Z.Z.Z.Z.Z.Z.Z.Z.Z.Z.Z.Z.Z.Z.Z.Z.Z.Z.Z.Z.Z.Z.",
"Z.Z.Z.Z.Z.Z.Z.Z.Z.Z.V.n.1 1 m.V.V.m.1 1 n.V.Z.Z.Z.Z.Z.Z.Z.Z.Z.Z.",
"Z.Z.Z.Z.Z.Z.Z.Z.Z.Z.A.N 9 9 B M.M.B 9 9 N A.Z.Z.Z.Z.Z.Z.Z.Z.Z.Z.",
"Z.Z.Z.Z.Z.Z.Z.Z.C.m.H s h h V J J V h h s H m.C.Z.Z.Z.Z.Z.Z.Z.Z.",
"Z.Z.Z.Z.Z.Z.Z.Z.n.N a ( +.+.Q i i Q +.+.( a N n.Z.Z.Z.Z.Z.Z.Z.Z.",
"Z.Z.Z.Z.Z.Z.Z.Z.1 0 g X.9.9...y y ..9.9.X.g 0 1 Z.Z.Z.Z.Z.Z.Z.Z.",
"Z.Z.Z.Z.Z.Z.Z.Z.1 0 f { 4.4.' t t ' 4.4.{ f 0 1 Z.Z.Z.Z.Z.Z.Z.Z.",
"Z.Z.Z.Z.Z.Z.Z.Z.1 0 y ) <.<.} P P } <.<.) y 0 1 Z.Z.Z.Z.Z.Z.Z.Z.",
"Z.Z.Z.Z.Z.Z.Z.Z.1 8 t ) <.,.-.| | -.,.<.) t 8 1 Z.Z.Z.Z.Z.Z.Z.Z.",
"Z.Z.Z.Z.Z.Z.C.M.G p I ..,.>.>.,.,.>.>.,...I p G M.C.Z.Z.Z.Z.Z.Z.",
"Z.Z.Z.Z.Z.Z.n.N a R X.;.>.>.>.,.,.>.>.>.;.X.R a N n.Z.Z.Z.Z.Z.Z.",
"Z.Z.Z.Z.Z.Z.< 6 q U ..#.*.*.*.*.*.*.*.*.#...U q 6 < Z.Z.Z.Z.Z.Z.",
"Z.Z.Z.Z.Z.Z.> + 2 4 K W [ ] ` ` ` ` ] [ W K 4 2 + > Z.Z.Z.Z.Z.Z.",
"Z.Z.Z.Z.C.m.D 5 3 e L /  .o.O.O.O.O.o. ./ L e 3 5 D m.C.Z.Z.Z.Z.",
"Z.Z.Z.Z.v.M u x Y ` @.:.1.0.h.h.h.h.0.1.:.@.` Y x u M v.Z.Z.Z.Z.",
"Z.Z.Z.Z.1 7 w T $.5.q.r.k.T.E.E.E.E.T.k.r.q.5.$.T w 7 1 Z.Z.Z.Z.",
"Z.Z.Z.Z.< 7 r _ 3.8.t.G.Y.R.E.E.E.E.R.Y.G.t.8.3._ r 7 < Z.Z.Z.Z.",
"Z.Z.Z.Z., $ j 2.U.r.e.I.J.g.6.7.7.6.g.J.I.e.r.U.2.j $ , Z.Z.Z.Z.",
"Z.Z.Z.Z., # n W._.P.w.I.j.%.E E E E %.j.I.w.P._.W.n # , Z.Z.Z.Z.",
"Z.Z.Z.Z.: O m ^.OX(.H.f.i.u.y.y.y.y.u.i.f.H.(.OX^.m O : Z.Z.Z.Z.",
"Z.Z.Z.Z.- o b !.$XOX/.&.=.)..X X X.X).=.&./.OX$X!.b o - Z.Z.Z.Z.",
"Z.Z.Z.Z.= X c !.;X-X}.p.d.+X<X,X,X<X+Xd.p.}.-X;X!.c X = Z.Z.Z.Z.",
"Z.Z.Z.Z.= X v ~.;X*XoX{.|.@X>X:X:X>X@X|.{.oX*X;X~.v X = Z.Z.Z.Z.",
"Z.Z.Z.Z.z.% C s.'.oX&X&X%X$X#X#X#X#X$X%X&X&XoX'.s.C % z.Z.Z.Z.Z.",
"Z.Z.Z.Z.B.c.F l ! ].=X&X%X%X&X&X&X&X%X%X&X=X].! l F c.B.Z.Z.Z.Z.",
"Z.Z.Z.Z.Z.Z.l.@ k a.].oXXX`.Q.Q.Q.Q.`.XXoX].a.k @ l.Z.Z.Z.Z.Z.Z.",
"Z.Z.Z.Z.Z.Z.N.x.S l ~ ].[.^ d z z d ^ [.].~ l S x.N.Z.Z.Z.Z.Z.Z.",
"Z.Z.Z.Z.Z.Z.Z.Z.; @ Z K.L.A   . .   A L.K.Z @ ; Z.Z.Z.Z.Z.Z.Z.Z.",
"Z.Z.Z.Z.Z.Z.Z.Z.b.; S.F.F.D.& * * & D.F.F.S.; b.Z.Z.Z.Z.Z.Z.Z.Z.",
"Z.Z.Z.Z.Z.Z.Z.Z.Z.Z.Z.Z.Z.Z.Z.Z.Z.Z.Z.Z.Z.Z.Z.Z.Z.Z.Z.Z.Z.Z.Z.Z.",
"Z.Z.Z.Z.Z.Z.Z.Z.Z.Z.Z.Z.Z.Z.Z.Z.Z.Z.Z.Z.Z.Z.Z.Z.Z.Z.Z.Z.Z.Z.Z.Z.",
"Z.Z.Z.Z.Z.Z.Z.Z.Z.Z.Z.Z.Z.Z.Z.Z.Z.Z.Z.Z.Z.Z.Z.Z.Z.Z.Z.Z.Z.Z.Z.Z."
};
