/* XPM */
static char *result[] = {
/* columns rows colors chars-per-pixel */
"32 32 131 2 ",
"   c #67483D",
".  c #61523B",
"X  c #65613D",
"o  c #6B7B3E",
"O  c #684943",
"+  c #6B5B42",
"@  c #6D5249",
"#  c #735043",
"$  c #795547",
"%  c #755E45",
"&  c #76554B",
"*  c #7C5648",
"=  c #765A4E",
"-  c #756144",
";  c #796243",
":  c #746D43",
">  c #76654C",
",  c #7F6548",
"<  c #6E7242",
"1  c #747541",
"2  c #767943",
"3  c #7B7A44",
"4  c #767B49",
"5  c #7C7B4D",
"6  c #7E6253",
"7  c #7F7154",
"8  c #835C4B",
"9  c #8A5E4D",
"0  c #805E51",
"q  c #806549",
"w  c #8B614D",
"e  c #83694B",
"r  c #8F6A4F",
"t  c #91654E",
"y  c #916A4F",
"u  c #846355",
"i  c #8D6553",
"p  c #8F6A50",
"a  c #83685B",
"s  c #8C6B5D",
"d  c #936352",
"f  c #986454",
"g  c #966A52",
"h  c #9C6D54",
"j  c #936D59",
"k  c #867055",
"l  c #847D50",
"z  c #977457",
"x  c #9C7457",
"c  c #9B735D",
"v  c #A17156",
"b  c #A4755A",
"n  c #AA7659",
"m  c #A5795D",
"M  c #AB7A5B",
"N  c #B3745D",
"B  c #B47A5E",
"V  c #866F60",
"C  c #8D7B60",
"Z  c #9A7765",
"A  c #9B7966",
"S  c #977C6C",
"D  c #9A7D6C",
"F  c #A37B62",
"G  c #AA7E62",
"H  c #B17D63",
"J  c #BB7E61",
"K  c #C27B64",
"L  c #C97E68",
"P  c #6D813E",
"I  c #6F8A3E",
"U  c #72813F",
"Y  c #718F3F",
"T  c #728341",
"R  c #748A43",
"E  c #7D804B",
"W  c #7E8550",
"Q  c #808F4D",
"!  c #81904D",
"~  c #848751",
"^  c #918064",
"/  c #9B8566",
"(  c #AF8163",
")  c #A4836E",
"_  c #A08F6B",
"`  c #B28465",
"'  c #B48867",
"]  c #B68468",
"[  c #B68A6B",
"{  c #A1916C",
"}  c #A58470",
"|  c #A88772",
" . c #A48B75",
".. c #AB8A74",
"X. c #AD8D78",
"o. c #B88D70",
"O. c #AE9079",
"+. c #B79277",
"@. c #B99376",
"#. c #B5947D",
"$. c #BC967A",
"%. c #BD9C7E",
"&. c #C28266",
"*. c #CB826A",
"=. c #C58A6B",
"-. c #D1826A",
";. c #DA856F",
":. c #C78D76",
">. c #DE8A70",
",. c #CC9279",
"<. c #D3997E",
"1. c #E58D73",
"2. c #EA9176",
"3. c #B69D84",
"4. c #BA9E83",
"5. c #BB9F8B",
"6. c #B8A086",
"7. c #BBA28A",
"8. c #C29D82",
"9. c #C4A185",
"0. c #C5A68A",
"q. c #C8A68B",
"w. c #C4AA8E",
"e. c #CAAB8D",
"r. c #C3A992",
"t. c #C8AF92",
"y. c #CCB193",
"u. c #CFB59E",
"i. c #D5B294",
"p. c #D5BD9D",
"a. c #D7C0A0",
/* pixels */
"Y Y Y Y Y Y Y Y Y Y Y Y Y Y Y Y Y Y Y Y Y Y Y Y Y Y Y Y Y Y Y Y ",
"Y Y Y Y Y Y Y Y Y Y Y Y Y Y Y Y Y Y Y Y Y Y Y Y Y Y Y Y Y Y Y Y ",
"Y Y Y Y Y Y Y Y Y Y Y Y Y Y Y Y Y Y Y Y Y Y Y Y Y Y Y Y Y Y Y Y ",
"Y Y Y Y Y Y Y Y Y Y Y Y Y Y Y Y Y Y Y Y Y Y Y Y Y Y Y Y Y Y Y Y ",
"Y Y Y Y T U T T Y Y T 2 T T Y Y Y Y Y Y Y Y Y Y Y Y Y Y Y Y Y Y ",
"Y Y Y T : - - : T T : - % 1 U Y Y Y Y Y Y Y Y Y Y Y Y Y Y Y Y Y ",
"Y Y T 3 r d 9 , 2 2 q i d r 3 T Y Y Y Y Y Y Y Y Y Y Y Y Y Y Y Y ",
"Y U : r K L b r , q z H *.J d : I Y Y Y Y Y Y Y Y Y Y Y Y Y Y Y ",
"Y P - f ;.1.J g 8 q b =.2.;.f - U Y Y Y Y Y Y Y Y Y Y Y Y Y Y Y ",
"Y 2 - f ;.2.J g 8 9 c &.2.;.f ; U Y Y Y Y Y Y Y Y Y Y R Y Y Y Y ",
"Y T - f -.>.B g 8 8 h J 1.L f % o 3 U U U Q Y Y Y R R R R R Y Y ",
"Y T - w K -.B g 8 8 h J -.K t * ; ; ; ; w X U Y Y R 5 7 7 5 R Y ",
"Y T - 9 N &.' m i i v B K N 9 * 9 9 w w w e 2 R U E C S S C W R ",
"Y 2 - 8 h ] 7.,.G x n M B v 8 8 g n n n m z e X - s  .5.r.3.S 7 ",
"U 2 , p m @.t.e.[ M M M M v w 9 g b ( ' ' ( g w w j ..5.u.7.S a ",
"- , r F %.t.p.e.[ M M M M n v g w r m ' ' ` m m m x j D 5.7.S a ",
"* * w A w.a.p.0.F y v M M M ' G i i b ( ` ( ' ' ' m t i }  .C 7 ",
"* #   6 6.a.p.3.u # g M n ` 8.4.D j b ( M ( ' ' ' ( b g 0 > 4 R ",
"* # @ a $.i.p.6.s 6 m ' ' $.y.w.} c b M n M ( ( ( ( ' x @ . < R ",
"$ u S #.:.<.i.y.6.6.0.e.e.y.p.w.} z b M M n M ( M ( :._ & . P Y ",
"- k  .8.,.<.i.p.a.p.a.p.p.p.t.4. .F m M M n n M G o.9.X.= . o R ",
"T 5 ^ ..0.i.p.p.a.p.p.p.p.t.O.| #.+.( m n n n ( @.9.q.X.= . P Y ",
"Y R l / 6.w.w.w.w.w.w.w.w.4.| | 5.9.o.' ` ` ` o.8.e.e.X.= . o Y ",
"Y Y R ~ / } ) ) ) ) | ) ) | $.7.q.q.9.,.8.8.,.7.q.e.t.O.= . o Y ",
"Y Y Y R r s A Z s u u s A ) ..O.X.X.X.X.X.X.O.#.8.8.#.D = X P Y ",
"Y Y R o + 6 | | 6 O O 6 | ..s = = = = = = = = s #.3.V - < P I Y ",
"Y Y Y o X > { { > . . > { { > . . . . . . . . > _ _ > X P Y Y Y ",
"Y Y Y Y P T Q ! T o o T ! Q T < P < P < o o o T Q Q 2 o I Y Y Y ",
"Y Y Y Y Y Y Y Y Y Y Y Y Y Y Y Y Y Y Y Y Y Y Y Y Y Y Y Y Y Y Y Y ",
"Y Y Y Y Y Y Y Y Y Y Y Y Y Y Y Y Y Y Y Y Y Y Y Y Y Y Y Y Y Y Y Y ",
"Y Y Y Y Y Y Y Y Y Y Y Y Y Y Y Y Y Y Y Y Y Y Y Y Y Y Y Y Y Y Y Y ",
"Y Y Y Y Y Y Y Y Y Y Y Y Y Y Y Y Y Y Y Y Y Y Y Y Y Y Y Y Y Y Y Y "
};
