/* XPM */
static char *result[] = {
/* columns rows colors chars-per-pixel */
"32 32 136 2 ",
"   c #67483D",
".  c #61523B",
"X  c #65613D",
"o  c #6B7B3E",
"O  c #684943",
"+  c #714F46",
"@  c #6B5B42",
"#  c #6D5249",
"$  c #735043",
"%  c #795547",
"&  c #755E45",
"*  c #76554B",
"=  c #7C5648",
"-  c #765A4E",
";  c #795B51",
":  c #756144",
">  c #796243",
",  c #746D43",
"<  c #786E42",
"1  c #76654C",
"2  c #7F6548",
"3  c #6E7242",
"4  c #747541",
"5  c #767943",
"6  c #7B7A44",
"7  c #7C7B4D",
"8  c #7E6253",
"9  c #7F7154",
"0  c #835C4B",
"q  c #8A5E4D",
"w  c #806549",
"e  c #8B614D",
"r  c #83694B",
"t  c #8F6A4F",
"y  c #91654E",
"u  c #916A4F",
"i  c #846355",
"p  c #8D6553",
"a  c #816E50",
"s  c #8F6A50",
"d  c #83685B",
"f  c #8C6B5D",
"g  c #936352",
"h  c #986454",
"j  c #966A52",
"k  c #9C6D54",
"l  c #936D59",
"z  c #867055",
"x  c #887053",
"c  c #847D50",
"v  c #8A7A5F",
"b  c #977457",
"n  c #9C7457",
"m  c #9B735D",
"M  c #A17156",
"N  c #A4755A",
"B  c #AA7659",
"V  c #A5795D",
"C  c #AB7A5B",
"Z  c #B3745D",
"A  c #B47A5E",
"S  c #866F60",
"D  c #8D7B60",
"F  c #9A7765",
"G  c #957F61",
"H  c #9B7966",
"J  c #977C6C",
"K  c #9A7D6C",
"L  c #A37B62",
"P  c #AA7E62",
"I  c #B17D63",
"U  c #BB7E61",
"Y  c #C27B64",
"T  c #C97E68",
"R  c #6D813E",
"E  c #6F8A3E",
"W  c #72813F",
"Q  c #718F3F",
"!  c #728341",
"~  c #748A43",
"^  c #7E8550",
"/  c #808F4D",
"(  c #81904D",
")  c #848751",
"_  c #918064",
"`  c #9B8566",
"'  c #AF8163",
"]  c #A4836E",
"[  c #A08F6B",
"{  c #B28465",
"}  c #B48867",
"|  c #B68468",
" . c #B68A6B",
".. c #A1916C",
"X. c #A58470",
"o. c #A88772",
"O. c #A48B75",
"+. c #AB8A74",
"@. c #AD8D78",
"#. c #B88D70",
"$. c #B28D7A",
"%. c #AE9079",
"&. c #B79277",
"*. c #B99376",
"=. c #B5947D",
"-. c #BC967A",
";. c #BD9C7E",
":. c #C28266",
">. c #CB826A",
",. c #C58A6B",
"<. c #D1826A",
"1. c #DA856F",
"2. c #C78D76",
"3. c #DE8A70",
"4. c #CC9279",
"5. c #D3997E",
"6. c #E58D73",
"7. c #EA9176",
"8. c #B69D84",
"9. c #BA9E83",
"0. c #BB9F8B",
"q. c #B8A086",
"w. c #BBA28A",
"e. c #C29D82",
"r. c #C4A185",
"t. c #C5A68A",
"y. c #C8A68B",
"u. c #C4AA8E",
"i. c #CAAB8D",
"p. c #C3A992",
"a. c #C8AF92",
"s. c #CCB193",
"d. c #CFB59E",
"f. c #D5B294",
"g. c #D5BD9D",
"h. c #D7C0A0",
/* pixels */
"Q Q Q Q Q Q Q Q Q Q Q Q Q Q Q Q Q Q Q Q Q Q Q Q Q Q Q Q Q Q Q Q ",
"Q Q Q Q Q Q Q Q Q Q Q Q Q Q Q Q Q Q Q Q Q Q Q Q Q Q Q Q Q Q Q Q ",
"Q Q Q Q Q Q Q Q Q Q Q Q Q Q Q Q Q Q Q Q Q Q Q Q Q Q Q Q Q Q Q Q ",
"Q Q Q Q Q Q Q Q Q Q Q Q Q Q Q Q Q Q ! W ! W Q Q W ! ! W Q Q Q Q ",
"Q Q Q Q Q Q Q Q Q Q Q Q Q Q Q Q Q W 4 & & , ! ! , & & , ! Q Q Q ",
"Q Q Q Q Q Q Q Q Q Q Q Q Q Q Q Q ! 6 t g p r 5 5 2 q p j 6 W Q Q ",
"Q Q Q Q Q Q Q Q Q Q Q Q Q Q Q Q , u Y >.I b 2 > t B T Y s 4 ! Q ",
"Q Q Q Q Q Q Q Q Q Q Q Q Q Q ~ o : h 1.7.,.N i 0 j U 6.1.h : R Q ",
"Q Q Q Q ~ Q Q Q Q Q Q Q Q Q Q ! : h 1.7.:.n 0 0 j U 6.1.h : ! Q ",
"Q ~ ~ ~ ! ~ Q Q Q Q ! W ! W W 4 & g <.6.Y j 0 0 j U 3.<.h : o Q ",
"~ ~ 7 9 z 7 ~ Q Q W < > > > > & % y Y <.A M 0 0 j Z >.Y g : ! Q ",
"~ ^ _ J J v 7 W W 6 r e e e e 0 = q Z :.A M t p L | Y Z q : ! Q ",
"9 _ 8.w.0.O.x : > r b V V V N j 0 q M A C B M P ;.e.{ k 0 : ! Q ",
"d K p.d.0.+.l q e j ' } } ' N j q e M C C B C  .i.s.&.V g w 4 ! ",
"d J w.w.K l M V V ' ' } } ' r e j M N C C C C  .i.g.s.;.L u w : ",
"9 D O.K f y P | } } ' ' ' V p p P | C B B N j L t.g.h.t.L e = % ",
"~ ! 1 ; u N ' } } { C C C V l H 9.e.{ B C j $ 8 8.h.h.0.i   $ % ",
"~ 4 . + n { { ' ' { C C C V m o.a.s.-. .} V 8 z w.g.f.-.d # * % ",
"~ R . - o.2.{ C C C C B C N m X.t.g.i.i.i.t.q.q.s.f.e.2.$.K i % ",
"Q 3 . - %.r.#.I C C C B C V L o.q.i.g.h.g.g.h.h.h.f.5.4.e.@.a & ",
"Q o . - @.t.r.&.' B B C B ' &.&.o.%.s.h.g.g.h.g.g.g.f.r.+.G 7 ! ",
"Q R . - @.i.i.e. .| | ' { *.r.q.o.o.q.t.u.u.u.i.u.u.p.9.` c ~ Q ",
"~ o . ; %.i.y.t.w.4.q.e.4.w.y.u.r.=.o.] ] ] o.] ] ] X.` ) ~ ~ Q ",
"Q ! X 1 H =.t.t.=.@.@.@.@.@.@.O.@.+.] F f i i f F F l a ~ Q Q Q ",
"Q E R 3 @ S =.8.f - - ; ; - - - - f @.o.; O O i o.o.i @ o Q Q Q ",
"Q Q Q R X 1 ..` 1 . . . . . . . . 1 ....1 . . 1 ..[ 1 X R Q Q Q ",
"Q Q Q E R ~ ^ ( ! o o o 3 R R o o ! ( ( ! o o ! ( / ! R Q Q Q Q ",
"Q Q Q Q Q Q Q Q Q Q Q Q ~ Q Q Q Q E Q Q Q ~ Q Q Q Q ~ Q Q Q Q Q ",
"Q Q Q Q Q Q Q Q Q Q Q Q Q Q Q Q Q Q Q Q Q Q Q Q Q Q Q Q Q Q Q Q ",
"Q Q Q Q Q Q Q Q Q Q Q Q Q Q Q Q Q Q Q Q Q Q Q Q Q Q Q Q Q Q Q Q ",
"Q Q Q Q Q Q Q Q Q Q Q Q Q Q Q Q Q Q Q Q Q Q Q Q Q Q Q Q Q Q Q Q ",
"Q Q Q Q Q Q Q Q Q Q Q Q Q Q Q Q Q Q Q Q Q Q Q Q Q Q Q Q Q Q Q Q "
};
