/* XPM */
static char *result[] = {
/* columns rows colors chars-per-pixel */
"32 32 84 1 ",
"  c #535E2C",
". c #55622D",
"X c #5B642D",
"o c #576931",
"O c #5D6B31",
"+ c #5D7334",
"@ c #61672E",
"# c #646A2E",
"$ c #686C2F",
"% c #676D30",
"& c #696E30",
"* c #7C6631",
"= c #736B30",
"- c #7D6B3C",
"; c #657634",
": c #6B7233",
"> c #647A36",
", c #6A7A35",
"< c #6D7338",
"1 c #667B38",
"2 c #737532",
"3 c #757933",
"4 c #7C7C34",
"5 c #77733C",
"6 c #79743D",
"7 c #757938",
"8 c #7F7C40",
"9 c #A45E3D",
"0 c #AC5A39",
"q c #B95F3A",
"w c #816C32",
"e c #8D6C33",
"r c #89653F",
"t c #81693E",
"y c #99623F",
"u c #966B3E",
"i c #807F35",
"p c #8D7935",
"a c #8C793B",
"s c #A1603D",
"d c #AA653E",
"f c #A76B3A",
"g c #B5623B",
"h c #BA613A",
"j c #B66B3D",
"k c #A17135",
"l c #A5783C",
"z c #BE743B",
"x c #C3663A",
"c c #C9673A",
"v c #C76B3C",
"b c #CB6B3B",
"n c #D36E3B",
"m c #C1753C",
"M c #CE713A",
"N c #C27A3A",
"B c #D6733C",
"V c #DA743C",
"C c #D5793C",
"Z c #DE7A3C",
"A c #E27D3D",
"S c #8D6541",
"D c #8A6F40",
"F c #926242",
"G c #9D6440",
"H c #956842",
"J c #9D6B41",
"K c #877141",
"L c #A06D41",
"P c #668139",
"I c #6B843B",
"U c #6E8B3D",
"Y c #77863F",
"T c #7A853F",
"R c #718F3F",
"E c #778640",
"W c #7A8240",
"Q c #828135",
"! c #888537",
"~ c #8B8837",
"^ c #85823E",
"/ c #8D8A38",
"( c #928E39",
") c #E4833C",
/* pixels */
"RRRRRERRRRRRRRUUPIUURRRRRRRRRRRR",
"RRRRRRRRRRRRRRI+oo+PRRRRRRRRRRRR",
"RRRRRRRRRRRRRUPo...>UURRRRRRRRRR",
"RRRRRRRRRRRRI+O&&:&O+PURRRRRRRRR",
"RRRRRRRRUUUU+.X2T42X.;URRRRRRRRR",
"RRRRRRRRI>;;O X2Q42X.O;IRRRRRRRR",
"RRRRRRRR,###X X242&###$>RRRRRRRR",
"RRRRRRIP2222&.X22&&22222PURRRRRR",
"RRRRRU;#2~/~4#@&:#$4~/!2@PURRRRR",
"RRRRRU;@3/(~Q=$$$$=i~(/3@+URRRRR",
"RRRRRR;#3~~Qi42$#244Q~~3@&URRRRR",
"RRRRRRP:2432244$=3i32342,PURRRRR",
"RRRRRRRI,$@@=3T4443&@@$,URRRRRRR",
"RRRRRRRR3**ww234T22ww**3URRRRRRR",
"RRRRRRRRafjmk=$33&=kmjfpRRRRRRRR",
"RRRRRRT^lmVAmewppweNZVbl!QRRRRRR",
"RREEKDGLzZA)CmmmNzNCAVVmfua8ERRR",
"REEWKF9qM)))AAAAAAAAAAVbq9ytWERR",
"RR8DDF9qMA)))))AA)))AAVbq9yrKWRU",
"REKFFF9qbZ)))))AA))AAVBcq9FFFKEE",
"RE8SFF9qbA)AAAZVZZAVVZncq9FFFKEE",
"REKFFy9qbVZAZVBBVBVVVVMxh9FSSKEE",
"EEKSFF9LLxnZAZZZBnnnncxgdGFFSKEE",
"EEKFFFFL00xCAAVZBbbbxq09JHFFFWER",
"EEKFFFFHGsLxmmLMvLxLgL9yHFFFFKER",
"REKSFFFHFFLLLLJJLLLJJGyFFFFFFtYR",
"RRItrFFFFFFFHHHHJHHHHHFFFFFSt6YR",
"RRP<tFFFFFFFFFFFFFFFFFFFFFFt<PUR",
"EUUP5-K-rFFFSSFFFFFFFFSrr887IURR",
"RRRU,<<<8rFFFFFSFFFFSSS8%%<PURRR",
"RRRRPP1188FKFFKDSSFFKS88<1PPURRR",
"RRRRRREEEEEEEEEEEEEEEEEEEERRERRR"
};
