/* XPM */
static char *result[] = {
/* columns rows colors chars-per-pixel */
"32 32 152 2 ",
"   c #6E4635",
".  c #6E4834",
"X  c #7D4435",
"o  c #734C36",
"O  c #7C4D35",
"+  c #7F463A",
"@  c #764D38",
"#  c #794F38",
"$  c #7B5336",
"%  c #7E5836",
"&  c #7D5B38",
"*  c #5F6E36",
"=  c #6A6D38",
"-  c #766438",
";  c #7B6439",
":  c #7C6C3C",
">  c #74743C",
",  c #79703B",
"<  c #737C3C",
"1  c #7A7B3E",
"2  c #784F42",
"3  c #7D5F41",
"4  c #72594D",
"5  c #6F624D",
"6  c #746642",
"7  c #776349",
"8  c #7A654B",
"9  c #737A45",
"0  c #7E764E",
"q  c #7C7F4A",
"w  c #656455",
"e  c #6A6454",
"r  c #6E6855",
"t  c #62675A",
"y  c #62695E",
"u  c #716155",
"i  c #5E6A62",
"p  c #813F35",
"a  c #844236",
"s  c #894537",
"d  c #864B37",
"f  c #8A4837",
"g  c #804539",
"h  c #8B4738",
"j  c #854C3F",
"k  c #8D4A39",
"l  c #914B3A",
"z  c #805337",
"x  c #815937",
"c  c #825438",
"v  c #8B5439",
"b  c #855D39",
"n  c #90563A",
"m  c #915E3A",
"M  c #8C6239",
"N  c #836A3B",
"B  c #8F6D3E",
"V  c #92633A",
"C  c #956A3D",
"Z  c #996B3C",
"A  c #80733D",
"S  c #9D713D",
"D  c #A2743D",
"F  c #A6783D",
"G  c #855243",
"H  c #8B5A49",
"J  c #955D4A",
"K  c #895E50",
"L  c #816645",
"P  c #846F43",
"I  c #8E6C43",
"U  c #8C624F",
"Y  c #896F4C",
"T  c #956440",
"R  c #9E6244",
"E  c #936D42",
"W  c #887347",
"Q  c #937247",
"!  c #9C7343",
"~  c #95714A",
"^  c #9B754A",
"/  c #927D4E",
"(  c #9F7A4D",
")  c #846552",
"_  c #866956",
"`  c #8D6E59",
"'  c #8C7557",
"]  c #877B53",
"[  c #8E7459",
"{  c #9C7D51",
"}  c #92735B",
"|  c #96785E",
" . c #A36346",
".. c #AB6A44",
"X. c #BB6846",
"o. c #B66548",
"O. c #BB694A",
"+. c #A17846",
"@. c #A27C4E",
"#. c #A97E4C",
"$. c #B87448",
"%. c #AF7751",
"&. c #A27E51",
"*. c #A97B52",
"=. c #C05F45",
"-. c #CB6A46",
";. c #C36649",
":. c #C66949",
">. c #CE6F4A",
",. c #D76E49",
"<. c #C37248",
"1. c #C87449",
"2. c #D9734A",
"3. c #C57550",
"4. c #73823D",
"5. c #718F3F",
"6. c #748C41",
"7. c #7B8C44",
"8. c #798248",
"9. c #808945",
"0. c #838C48",
"q. c #8D8C4E",
"w. c #91894E",
"e. c #86964B",
"r. c #8F8350",
"t. c #9F8C58",
"y. c #969153",
"u. c #9D9156",
"i. c #A6804E",
"p. c #A8814D",
"a. c #A58355",
"s. c #A98555",
"d. c #AB8A55",
"f. c #A38C5A",
"g. c #AC8C59",
"h. c #B28A57",
"j. c #B08C5C",
"k. c #A7915B",
"l. c #AC905E",
"z. c #B1925D",
"x. c #B8915D",
"c. c #B49461",
"v. c #B99562",
"b. c #B69A63",
"n. c #BC9B65",
"m. c #BCA066",
"M. c #BFA569",
"N. c #BEA869",
"B. c #C19D67",
"V. c #C3A46A",
"C. c #C4AB6D",
"Z. c #C8AD6E",
/* pixels */
"5.5.5.5.5.5.5.5.5.5.5.5.5.5.4.4.4.5.5.5.5.5.5.5.5.5.5.5.5.5.5.5.",
"5.5.5.5.5.5.5.5.5.5.5.5.4.: Z Z Z B > 5.5.5.5.5.5.5.5.5.5.5.5.5.",
"5.5.5.5.5.5.5.5.5.5.5.4.z v D D F Z k ; 5.5.8.q q q 6.5.5.5.5.5.",
"5.5.5.5.5.5.5.5.5.5.4.z h v D D D Z v l - q | [ ` } ] 6.5.5.5.5.",
"5.5.5.5.5.5.5.5.5.4.z a a v D D D Z a h a L ` 4 4 ) ' 5.5.5.5.5.",
"5.5.5.5.6.5.5.5.4.v l s l n S D D Z a p a H | _ _ [ ' 6.5.5.5.5.",
"5.5.5.5.5.5.5.4.O k s s h v S F D Z p p p j ` } } [ 0 6.5.5.5.5.",
"5.5.5.5.5.5.4.$ p a a a p v D D D Z k a p a ) ` _ _ 9 5.5.5.5.5.",
"5.5.5.5.6.4.$ a p a a a p v S D D Z l l s s G _ _ _ 9 5.6.5.5.5.",
"5.5.5.5.< c a a a a a p p v S F D C s h a s a v U _ 6 5.5.5.5.5.",
"5.5.5.4.O s a k l s k a s v S D D Z h s s l s l G K 2 ; 5.5.5.5.",
"5.6.4.x a a h h a l h s s v F F F Z d h a l s h s g + k ; 5.5.5.",
"5.4.O a a l s a p a s d V V Z Z Z V V v a a s a p p a a a ; 5.5.",
"5.< p p a s a a p l l m E ^ ( @.@.( ^ C v s a s a a p s a $ 5.5.",
"5.< X p p a s p p l V C a.z.b.z.z.z.l.^ C v a s a l a s a $ 5.5.",
"5.; s a a s a s h m C d.V.m.s.! +.z.V.n.^ Z n l h l k s a X > 5.",
"5.& s l s a a f m C a.V.C.p.C B Q S z.Z.v.^ Z n s a s l k X > 5.",
"5.; a l a s k V C a.B.V.v.I r t i L @.V.B.b.^ C v s a s k a < 5.",
"< d a s a k V T a.B.V.V.B.B 5 e w 3 @.V.V.V.v.! Z v a p a h & 5.",
"< d a s a V E s.V.V.V.V.V.j.Y 7 8 { m.V.V.V.V.b.^ Z v p a a $ 5.",
"4.O p s m C d.V.Z.Z.Z.Z.Z.n.d.( i.z.V.Z.Z.Z.Z.Z.n.^ V v a a & 5.",
"< d a V C a.n.B.B.B.V.n.@.! S S Z Z ! g.V.V.V.B.V.v.^ C v a & 5.",
"< d V C &.B.s.#.#.#.v.j.Z M $ $ $ $ M ! v.h.#.#.#.x.c.~ Z v & 5.",
"6.N V a.c.x.C E E C @.@.M .     .   # C s.E C Q C ^ n.g.! M < 5.",
"6.5.1 k.b.v.7 i u w { ^ c           o b a.L K K y ~ B.c.w.4.6.5.",
"5.5.5.q.c.z.3 U ;. .( ~ c           o b a.R -.:.J ~ n.f.7.6.5.5.",
"5.5.5.y.b.v.o.;.>.=.*.^ x           o b a.O.:.X.,.3.b.b.7.5.5.5.",
"5.5.5.0.l.%.,.<...2.$.E x o @ # # @ @ b ^ ,.1.I $...a.f.6.5.5.5.",
"5.5.6.7.c.W A , , .. .I x @ # $ # # # b ^ T : * = > f.k.5.5.5.5.",
"5.5.5.6.f.r.9.6 < P a.~ x $ c z c z $ b f.l./ / { t.f.q.5.5.5.5.",
"5.5.5.5.u.b.V.M.N.V.Z.Q x % b x x b $ b g.C.C.C.Z.m.b.7.5.5.5.5.",
"5.5.5.6.0.q.e.e.e.e.e.1 : < 4.4.4.4.> A 7.e.e.e.e.e.q.6.6.5.5.5."
};
