/* XPM */
static char *result[] = {
/* columns rows colors chars-per-pixel */
"32 32 42 1 ",
"  c #234E27",
". c #255526",
"X c #245B25",
"o c #255528",
"O c #265A29",
"+ c #365D2D",
"@ c #395F2E",
"# c #276426",
"$ c #286626",
"% c #296B27",
"& c #266429",
"* c #29652A",
"= c #276829",
"- c #296C29",
"; c #34632C",
": c #39662D",
"> c #356C2C",
", c #396D2E",
"< c #2C7227",
"1 c #2C7429",
"2 c #2E7C29",
"3 c #36742C",
"4 c #3C752E",
"5 c #317C2A",
"6 c #3B6E30",
"7 c #3C7531",
"8 c #3D7830",
"9 c #407C2F",
"0 c #476C32",
"q c #477231",
"w c #4B7633",
"e c #4D7934",
"r c #507D35",
"t c #5D7E39",
"y c #2F8029",
"u c #308129",
"i c #33892A",
"p c #5E8339",
"a c #62853B",
"s c #60893A",
"d c #6D8C3E",
"f c #718F3F",
/* pixels */
"ffffffffffffffffffffffffffffffff",
"fffffffffdsppsdfffffffffffffffff",
"ffffffffdpw,7wsfffffffffffffffff",
"fffffffdpp3--3esddappadfffffffff",
"fffffffaw32yu53waaw3,wsdffffffff",
"fffffffa6-yii2->wp7-=3rpffffffff",
"fffffffp6-uiu1=%>32yy23wafffffff",
"fffffdae3-2222-==2yiiy1>raffffff",
"fffffaw>11-12y212y2ii2-$>wsfffff",
"ffffse3111--2222iy11221=-3eadfff",
"fffaw352211<-1<2211%=-<1253wafff",
"fdae>-uiu211=<1211====2uiu-6afff",
"faq;#%yii21-2y21%%%111yii5-,pfff",
"tr>#%%2yu<==yiy1==<22yyyu5-3eadf",
":>525<%--==1yii2=%12i21=%11->qaf",
"X#2i5<%%=&&=22y2=-1yiy=#=-11#:pf",
"X#2iiu1<-=*-1=---1yiiy=&-2u2#:pd",
":>2yu2221111==&=-12yy2-<2yi2$:pd",
"ae>$#%uu5111=-=-----=1%2yii2#:pf",
"te;XX#2iy511111121==%%<22221#:wt",
"@;$XX#2iiy111<22y52111<<%#$%#*++",
" .*%=&12y2512<<<yiy2112<$#XX%%o ",
" o->=&&&&-2y2<#$yii2==%25<#X--O ",
"@;-%&&XXO&yiu<##1y21X#<ui2$X$-;+",
"tw@ooOO*O#2ii2=XX===X#<iiu#X.;wt",
"fa0+ o$-&&<2u<=OXXXOO%<2u<%X.@tf",
"fdtw+O--=*&$#=#&=&&&==$=#$%$.@tf",
"ffft0;;-$&X&X#&*&&*=$=#XXX#%;0af",
"fffdae@ooO=-=*=*OO*=--<%. o:waff",
"ffffdt0@+:898777;:6788940@@0tfff",
"fffffdattpsssapptppssppattttdfff",
"ffffffffffdffffffffffdffffffffff"
};
